<svg id="instagram-2016" xmlns="http://www.w3.org/2000/svg" xmlns:xlink="http://www.w3.org/1999/xlink" width="28.977" height="28.978" viewBox="0 0 28.977 28.978">
  <defs>
    <radialGradient id="radial-gradient" cx="3.85" cy="29.115" r="37.819" gradientUnits="userSpaceOnUse">
      <stop offset="0.09" stop-color="#fa8f21"/>
      <stop offset="0.78" stop-color="#d82d7e"/>
    </radialGradient>
    <radialGradient id="radial-gradient-2" cx="17.574" cy="30.413" r="29.805" gradientUnits="userSpaceOnUse">
      <stop offset="0.64" stop-color="#8c3aaa" stop-opacity="0"/>
      <stop offset="1" stop-color="#8c3aaa"/>
    </radialGradient>
  </defs>
  <path id="Path_3" data-name="Path 3" d="M9.66,14.489a4.829,4.829,0,1,1,4.829,4.83,4.829,4.829,0,0,1-4.829-4.83m-2.611,0a7.44,7.44,0,1,0,7.44-7.44,7.44,7.44,0,0,0-7.44,7.44M20.485,6.754a1.739,1.739,0,1,0,1.739-1.738h0a1.739,1.739,0,0,0-1.739,1.738M8.635,26.283a8.008,8.008,0,0,1-2.691-.5A4.5,4.5,0,0,1,4.278,24.7a4.47,4.47,0,0,1-1.084-1.665,8,8,0,0,1-.5-2.691c-.07-1.527-.084-1.986-.084-5.855s.015-4.327.084-5.855a8.061,8.061,0,0,1,.5-2.691A4.5,4.5,0,0,1,4.278,4.277,4.465,4.465,0,0,1,5.945,3.193a8,8,0,0,1,2.691-.5c1.527-.07,1.986-.084,5.854-.084s4.327.015,5.855.084a8.061,8.061,0,0,1,2.691.5A4.489,4.489,0,0,1,24.7,4.277a4.489,4.489,0,0,1,1.084,1.667,8,8,0,0,1,.5,2.691c.07,1.529.084,1.986.084,5.855s-.014,4.327-.084,5.855a8.038,8.038,0,0,1-.5,2.691,4.8,4.8,0,0,1-2.75,2.749,8,8,0,0,1-2.691.5c-1.527.07-1.986.084-5.855.084s-4.327-.014-5.854-.084M8.515.088A10.624,10.624,0,0,0,5,.761,7.107,7.107,0,0,0,2.432,2.432,7.079,7.079,0,0,0,.761,5,10.627,10.627,0,0,0,.088,8.515C.016,10.06,0,10.554,0,14.489s.016,4.429.088,5.973a10.627,10.627,0,0,0,.673,3.517,7.083,7.083,0,0,0,1.671,2.567A7.124,7.124,0,0,0,5,28.217a10.634,10.634,0,0,0,3.517.673c1.546.07,2.039.088,5.973.088s4.429-.016,5.973-.088a10.627,10.627,0,0,0,3.517-.673,7.408,7.408,0,0,0,4.238-4.238,10.6,10.6,0,0,0,.673-3.517c.07-1.546.087-2.039.087-5.973s-.016-4.429-.087-5.973A10.623,10.623,0,0,0,28.217,5a7.125,7.125,0,0,0-1.671-2.567A7.09,7.09,0,0,0,23.98.761,10.61,10.61,0,0,0,20.464.088C18.919.018,18.425,0,14.49,0S10.061.016,8.515.088" transform="translate(0)" fill="url(#radial-gradient)"/>
  <path id="Path_4" data-name="Path 4" d="M9.66,14.489a4.829,4.829,0,1,1,4.829,4.83,4.829,4.829,0,0,1-4.829-4.83m-2.611,0a7.44,7.44,0,1,0,7.44-7.44,7.44,7.44,0,0,0-7.44,7.44M20.485,6.754a1.739,1.739,0,1,0,1.739-1.738h0a1.739,1.739,0,0,0-1.739,1.738M8.635,26.283a8.008,8.008,0,0,1-2.691-.5A4.5,4.5,0,0,1,4.278,24.7a4.47,4.47,0,0,1-1.084-1.665,8,8,0,0,1-.5-2.691c-.07-1.527-.084-1.986-.084-5.855s.015-4.327.084-5.855a8.061,8.061,0,0,1,.5-2.691A4.5,4.5,0,0,1,4.278,4.277,4.465,4.465,0,0,1,5.945,3.193a8,8,0,0,1,2.691-.5c1.527-.07,1.986-.084,5.854-.084s4.327.015,5.855.084a8.061,8.061,0,0,1,2.691.5A4.489,4.489,0,0,1,24.7,4.277a4.489,4.489,0,0,1,1.084,1.667,8,8,0,0,1,.5,2.691c.07,1.529.084,1.986.084,5.855s-.014,4.327-.084,5.855a8.038,8.038,0,0,1-.5,2.691,4.8,4.8,0,0,1-2.75,2.749,8,8,0,0,1-2.691.5c-1.527.07-1.986.084-5.855.084s-4.327-.014-5.854-.084M8.515.088A10.624,10.624,0,0,0,5,.761,7.107,7.107,0,0,0,2.432,2.432,7.079,7.079,0,0,0,.761,5,10.627,10.627,0,0,0,.088,8.515C.016,10.06,0,10.554,0,14.489s.016,4.429.088,5.973a10.627,10.627,0,0,0,.673,3.517,7.083,7.083,0,0,0,1.671,2.567A7.124,7.124,0,0,0,5,28.217a10.634,10.634,0,0,0,3.517.673c1.546.07,2.039.088,5.973.088s4.429-.016,5.973-.088a10.627,10.627,0,0,0,3.517-.673,7.408,7.408,0,0,0,4.238-4.238,10.6,10.6,0,0,0,.673-3.517c.07-1.546.087-2.039.087-5.973s-.016-4.429-.087-5.973A10.623,10.623,0,0,0,28.217,5a7.125,7.125,0,0,0-1.671-2.567A7.09,7.09,0,0,0,23.98.761,10.61,10.61,0,0,0,20.464.088C18.919.018,18.425,0,14.49,0S10.061.016,8.515.088" transform="translate(0)" fill="url(#radial-gradient-2)"/>
</svg>
