<svg xmlns="http://www.w3.org/2000/svg" width="29.071" height="20.417" viewBox="0 0 29.071 20.417">
  <g id="youtube-icon" transform="translate(0 0)">
    <path id="Path_3927" data-name="Path 3927" d="M34.587,28.307c-2.665-1.424-5.218-2.734-7.826-4.1v8.179c2.745-1.492,5.639-2.859,7.838-4.078Z" transform="translate(-15.223 -18.396)" fill="#fff"/>
    <path id="Path_3928" data-name="Path 3928" d="M34.587,28.307c-2.665-1.424-7.826-4.1-7.826-4.1l6.881,4.625Z" transform="translate(-15.223 -18.396)" fill="#e8e0e0"/>
    <path id="Path_3929" data-name="Path 3929" d="M17.408,33.826c-5.536-.1-7.427-.194-8.59-.433a3.776,3.776,0,0,1-1.971-1.025,4.148,4.148,0,0,1-.934-1.8,11.775,11.775,0,0,1-.4-2.643,62.775,62.775,0,0,1,0-8.567c.178-1.582.264-3.461,1.447-4.557A3.878,3.878,0,0,1,8.9,13.821a106.95,106.95,0,0,1,11.016-.387,107.147,107.147,0,0,1,11.017.387A3.79,3.79,0,0,1,33.2,15.165c1.079,1.7,1.1,3.807,1.207,5.457.045.786.045,5.252,0,6.038a13.8,13.8,0,0,1-.695,4.488,3.308,3.308,0,0,1-.8,1.276,3.821,3.821,0,0,1-2.028,1.037c-4.791.36-8.859.438-13.477.365Zm7.337-10.481c-2.665-1.424-5.218-2.745-7.826-4.113v8.18c2.745-1.492,5.639-2.86,7.838-4.079Z" transform="translate(-5.368 -13.434)" fill="#cd201f"/>
  </g>
</svg>
